<?xml version="1.0" encoding="UTF-8" standalone="no"?>
<svg
   xmlns:dc="http://purl.org/dc/elements/1.1/"
   xmlns:cc="http://creativecommons.org/ns#"
   xmlns:rdf="http://www.w3.org/1999/02/22-rdf-syntax-ns#"
   xmlns:svg="http://www.w3.org/2000/svg"
   xmlns="http://www.w3.org/2000/svg"
   xmlns:sodipodi="http://sodipodi.sourceforge.net/DTD/sodipodi-0.dtd"
   xmlns:inkscape="http://www.inkscape.org/namespaces/inkscape"
   version="1.1"
   id="Layer_1"
   x="0px"
   y="0px"
   viewBox="0 0 113.01 122.88"
   style="enable-background:new 0 0 113.01 122.88"
   xml:space="preserve"
   sodipodi:docname="bulb-light.svg"
   inkscape:version="1.0.1 (3bc2e813f5, 2020-09-07)"><metadata
     id="metadata511"><rdf:RDF><cc:Work
         rdf:about=""><dc:format>image/svg+xml</dc:format><dc:type
           rdf:resource="http://purl.org/dc/dcmitype/StillImage" /></cc:Work></rdf:RDF></metadata><defs
     id="defs509" /><sodipodi:namedview
     pagecolor="#ffffff"
     bordercolor="#666666"
     borderopacity="1"
     objecttolerance="10"
     gridtolerance="10"
     guidetolerance="10"
     inkscape:pageopacity="0"
     inkscape:pageshadow="2"
     inkscape:window-width="900"
     inkscape:window-height="1563"
     id="namedview507"
     showgrid="false"
     inkscape:zoom="6.9417319"
     inkscape:cx="28.766994"
     inkscape:cy="61.151886"
     inkscape:window-x="0"
     inkscape:window-y="0"
     inkscape:window-maximized="1"
     inkscape:current-layer="Layer_1" /><g
     id="g504"><path
       d="M44.13,102.06c-1.14,0.03-2.14-0.81-2.3-1.96c-0.17-1.2,0.64-2.31,1.82-2.54c-1.3-7.37-4.85-11.43-8.6-15.72 c-2.92-3.34-5.95-6.81-8.34-11.92c-2.35-5.03-3.64-10.23-3.6-15.63c0.05-5.4,1.42-10.96,4.4-16.71c0.02-0.04,0.04-0.07,0.06-0.11 l0,0c3.91-6.62,9.38-11.04,15.47-13.52c5.11-2.09,10.66-2.8,16.1-2.3c5.42,0.5,10.73,2.2,15.37,4.94 c5.9,3.49,10.75,8.67,13.42,15.21c1.44,3.54,2.42,7.49,2.54,11.82c0.12,4.31-0.62,8.96-2.61,13.88 c-2.66,6.59-6.18,10.68-9.47,14.51c-3.03,3.53-5.85,6.81-7.42,11.84c0.89,0.21,1.59,0.94,1.73,1.9c0.17,1.24-0.7,2.39-1.94,2.56 l-0.77,0.11c-0.14,1.09-0.23,2.26-0.27,3.51l0.25-0.04c1.24-0.17,2.39,0.7,2.56,1.94c0.17,1.24-0.7,2.39-1.94,2.56l-0.78,0.11 c0.01,0.15,0.02,0.3,0.03,0.45l0,0c0.07,0.88,0.08,1.73,0.03,2.54l0.13-0.02c1.25-0.15,2.38,0.74,2.54,1.98 c0.15,1.25-0.74,2.38-1.98,2.54l-1.68,0.21c-1.2,3.11-3.34,5.48-5.87,6.94c-1.74,1.01-3.67,1.59-5.61,1.71 c-1.97,0.12-3.96-0.25-5.78-1.13c-2.08-1.02-3.94-2.71-5.29-5.14c-0.65-0.33-1.13-0.97-1.23-1.75c-0.04-0.31-0.01-0.61,0.07-0.89 c-0.39-1.16-0.68-2.43-0.87-3.83l-0.07,0.01c-1.24,0.17-2.39-0.7-2.56-1.94c-0.17-1.24,0.7-2.39,1.94-2.56l0.54-0.08 C44.19,104.32,44.18,103.16,44.13,102.06L44.13,102.06z M2.18,58.86C1.01,58.89,0.04,57.98,0,56.81c-0.04-1.17,0.88-2.14,2.05-2.18 l8.7-0.3c1.17-0.04,2.14,0.88,2.18,2.05c0.04,1.17-0.88,2.14-2.05,2.18L2.18,58.86L2.18,58.86z M110.68,50.25 c1.16-0.12,2.2,0.73,2.32,1.89c0.12,1.16-0.73,2.2-1.89,2.32l-8.66,0.91c-1.16,0.12-2.2-0.73-2.32-1.89 c-0.12-1.16,0.73-2.2,1.89-2.32L110.68,50.25L110.68,50.25z M94.91,14.78c0.65-0.97,1.96-1.23,2.93-0.58 c0.97,0.65,1.23,1.96,0.58,2.93l-4.84,7.24c-0.65,0.97-1.96,1.23-2.93,0.58c-0.97-0.65-1.23-1.96-0.58-2.93L94.91,14.78 L94.91,14.78z M57.63,2.06c0.03-1.17,1-2.09,2.16-2.06c1.17,0.03,2.09,1,2.06,2.16l-0.22,8.7c-0.03,1.17-1,2.09-2.16,2.06 c-1.17-0.03-2.09-1-2.06-2.16L57.63,2.06L57.63,2.06z M13.88,15.53c-0.86-0.8-0.9-2.14-0.11-2.99c0.8-0.86,2.14-0.9,2.99-0.11 l6.37,5.94c0.86,0.8,0.9,2.14,0.11,2.99c-0.8,0.86-2.14,0.9-2.99,0.11L13.88,15.53L13.88,15.53z M47.88,96.95l18.49-2.63 c1.59-6.7,5.05-10.73,8.8-15.08c3.08-3.58,6.36-7.4,8.76-13.34c1.76-4.35,2.41-8.43,2.31-12.19c-0.1-3.75-0.96-7.21-2.24-10.34 c-2.3-5.63-6.51-10.11-11.65-13.15c-4.11-2.43-8.8-3.94-13.59-4.37c-4.77-0.44-9.64,0.19-14.13,2.02 c-5.26,2.15-9.99,5.97-13.39,11.72c-2.64,5.12-3.86,10.02-3.9,14.73c-0.04,4.74,1.11,9.33,3.2,13.8c2.13,4.56,4.97,7.8,7.69,10.92 C42.47,83.9,46.48,88.49,47.88,96.95L47.88,96.95z M65.62,99.02l-17.27,2.45c0.05,1.1,0.07,2.25,0.05,3.47l17.05-2.42 C65.47,101.29,65.52,100.12,65.62,99.02L65.62,99.02z M48.49,109.52c0.12,0.92,0.3,1.76,0.53,2.54l16.55-2.04 c0.11-0.86,0.13-1.77,0.05-2.74l0,0l0-0.02l-0.01-0.17L48.49,109.52L48.49,109.52z M51.37,116.36c0.64,0.67,1.35,1.19,2.1,1.55 c1.15,0.56,2.42,0.79,3.67,0.72c1.29-0.08,2.57-0.47,3.74-1.15c1.1-0.64,2.09-1.53,2.88-2.65L51.37,116.36L51.37,116.36z"
       id="path502" /></g><path
     style="fill:#ffcc00;stroke-width:0.144056"
     d="m 47.662155,95.473292 c -0.355953,-1.886526 -1.379948,-4.851306 -2.334999,-6.760535 -1.488969,-2.97658 -2.973103,-5.027663 -7.12149,-9.84195 -4.896788,-5.682819 -6.780758,-8.557923 -8.542819,-13.037092 -3.266447,-8.303324 -2.943849,-16.504984 0.97231,-24.719834 1.391619,-2.919174 3.028783,-5.167397 5.498296,-7.550496 4.161631,-4.016005 8.953973,-6.375082 15.111481,-7.438774 2.027174,-0.350188 7.032578,-0.353308 9.212281,-0.0057 6.676694,1.064637 12.664931,3.918471 17.130522,8.163949 4.023928,3.825584 6.673842,8.599007 7.918587,14.264144 1.459679,6.643362 0.436268,13.500919 -3.027184,20.28418 -1.63246,3.197216 -3.319137,5.556557 -7.537734,10.543861 -3.059899,3.617468 -3.700447,4.435658 -4.845005,6.188666 -1.370722,2.099395 -2.393708,4.220927 -3.093874,6.416258 -0.328503,1.030002 -0.64445,1.967687 -0.702106,2.083745 -0.07929,0.159607 -2.260058,0.517771 -8.951784,1.470218 -4.865828,0.692563 -8.979282,1.262067 -9.141009,1.265563 -0.257722,0.0056 -0.325112,-0.158266 -0.545473,-1.326162 z"
     id="path513" /><path
     style="fill:#b3b3b3;stroke-width:0.144056"
     d="m 48.429649,103.23051 c 0,-1.61011 0.01075,-1.66769 0.324127,-1.73582 0.513518,-0.11165 16.726334,-2.381706 16.747879,-2.344975 0.01066,0.01816 -0.0087,0.762881 -0.04298,1.654925 -0.05826,1.51543 -0.08258,1.62627 -0.370495,1.68853 -0.169483,0.0366 -3.808716,0.55581 -8.087187,1.15369 -4.278471,0.59788 -7.957308,1.12349 -8.175193,1.16803 l -0.396155,0.081 z"
     id="path515" /><path
     style="fill:#b3b3b3;stroke-width:0.144056"
     d="m 48.865694,111.15808 c -0.08833,-0.4255 -0.173961,-0.95376 -0.190283,-1.17391 l -0.02968,-0.40027 8.355263,-1.19712 c 4.595395,-0.65841 8.403883,-1.19977 8.463306,-1.20302 0.05942,-0.003 0.108042,0.60871 0.108042,1.35989 0,1.29998 -0.01562,1.36911 -0.324126,1.43452 -0.420418,0.0891 -15.677761,1.95355 -15.986873,1.95355 -0.168241,0 -0.280692,-0.21988 -0.395652,-0.77364 z"
     id="path517" /><path
     style="fill:#b3b3b3;stroke-width:0.144056"
     d=""
     id="path519" /><path
     style="fill:#b3b3b3;stroke-width:0.144056"
     d="m 54.978238,118.35737 c -0.399439,-0.097 -1.026709,-0.32189 -1.393933,-0.49966 -0.696281,-0.33706 -2.045211,-1.30441 -1.950718,-1.39891 0.07916,-0.0791 11.670025,-1.51385 11.821755,-1.46327 0.07029,0.0234 -0.363185,0.50899 -0.96328,1.07902 -2.168977,2.06031 -4.950825,2.90548 -7.513824,2.28282 z"
     id="path521" /></svg>
